<svg width="34" height="34" viewBox="0 0 34 34" fill="none" xmlns="http://www.w3.org/2000/svg">
<rect x="1" y="1" width="32" height="32" rx="8" stroke="#E4E9EE"/>
<path d="M24.5 11.9833C21.725 11.7083 18.9333 11.5667 16.15 11.5667C14.5 11.5667 12.85 11.65 11.2 11.8167L9.5 11.9833" stroke="#0B0F0E" stroke-width="1.5" stroke-linecap="round" stroke-linejoin="round"/>
<path d="M14.083 11.1416L14.2663 10.05C14.3997 9.25829 14.4997 8.66663 15.908 8.66663H18.0913C19.4997 8.66663 19.608 9.29163 19.733 10.0583L19.9163 11.1416" stroke="#0B0F0E" stroke-width="1.5" stroke-linecap="round" stroke-linejoin="round"/>
<path d="M22.7087 14.6167L22.167 23.0084C22.0753 24.3167 22.0003 25.3334 19.6753 25.3334H14.3253C12.0003 25.3334 11.9253 24.3167 11.8337 23.0084L11.292 14.6167" stroke="#0B0F0E" stroke-width="1.5" stroke-linecap="round" stroke-linejoin="round"/>
<path d="M15.6084 20.75H18.3834" stroke="#0B0F0E" stroke-width="1.5" stroke-linecap="round" stroke-linejoin="round"/>
<path d="M14.917 17.4166H19.0837" stroke="#0B0F0E" stroke-width="1.5" stroke-linecap="round" stroke-linejoin="round"/>
</svg>
