<svg width="116" height="20" viewBox="0 0 116 20" fill="none" xmlns="http://www.w3.org/2000/svg">
<path d="M11.4421 2.92538L12.9087 5.85871C13.1087 6.26705 13.6421 6.65871 14.0921 6.73371L16.7504 7.17538C18.4504 7.45871 18.8504 8.69205 17.6254 9.90871L15.5587 11.9754C15.2087 12.3254 15.0171 13.0004 15.1254 13.4837L15.7171 16.042C16.1837 18.067 15.1087 18.8504 13.3171 17.792L10.8254 16.317C10.3754 16.0504 9.63375 16.0504 9.17541 16.317L6.68375 17.792C4.90041 18.8504 3.81708 18.0587 4.28375 16.042L4.87541 13.4837C4.98375 13.0004 4.79208 12.3254 4.44208 11.9754L2.37541 9.90871C1.15875 8.69205 1.55041 7.45871 3.25041 7.17538L5.90875 6.73371C6.35041 6.65871 6.88375 6.26705 7.08375 5.85871L8.55041 2.92538C9.35041 1.33371 10.6504 1.33371 11.4421 2.92538Z" fill="#FFA439"/>
<path d="M35.4421 2.92538L36.9087 5.85871C37.1087 6.26705 37.6421 6.65871 38.0921 6.73371L40.7504 7.17538C42.4504 7.45871 42.8504 8.69205 41.6254 9.90871L39.5587 11.9754C39.2087 12.3254 39.0171 13.0004 39.1254 13.4837L39.7171 16.042C40.1837 18.067 39.1087 18.8504 37.3171 17.792L34.8254 16.317C34.3754 16.0504 33.6337 16.0504 33.1754 16.317L30.6837 17.792C28.9004 18.8504 27.8171 18.0587 28.2837 16.042L28.8754 13.4837C28.9837 13.0004 28.7921 12.3254 28.4421 11.9754L26.3754 9.90871C25.1587 8.69205 25.5504 7.45871 27.2504 7.17538L29.9087 6.73371C30.3504 6.65871 30.8837 6.26705 31.0837 5.85871L32.5504 2.92538C33.3504 1.33371 34.6504 1.33371 35.4421 2.92538Z" fill="#FFA439"/>
<path d="M59.4421 2.92538L60.9087 5.85871C61.1087 6.26705 61.6421 6.65871 62.0921 6.73371L64.7504 7.17538C66.4504 7.45871 66.8504 8.69205 65.6254 9.90871L63.5587 11.9754C63.2087 12.3254 63.0171 13.0004 63.1254 13.4837L63.7171 16.042C64.1837 18.067 63.1087 18.8504 61.3171 17.792L58.8254 16.317C58.3754 16.0504 57.6337 16.0504 57.1754 16.317L54.6837 17.792C52.9004 18.8504 51.8171 18.0587 52.2837 16.042L52.8754 13.4837C52.9837 13.0004 52.7921 12.3254 52.4421 11.9754L50.3754 9.90871C49.1587 8.69205 49.5504 7.45871 51.2504 7.17538L53.9087 6.73371C54.3504 6.65871 54.8837 6.26705 55.0837 5.85871L56.5504 2.92538C57.3504 1.33371 58.6504 1.33371 59.4421 2.92538Z" fill="#FFA439"/>
<path d="M83.4421 2.92538L84.9087 5.85871C85.1087 6.26705 85.6421 6.65871 86.0921 6.73371L88.7504 7.17538C90.4504 7.45871 90.8504 8.69205 89.6254 9.90871L87.5587 11.9754C87.2087 12.3254 87.0171 13.0004 87.1254 13.4837L87.7171 16.042C88.1837 18.067 87.1087 18.8504 85.3171 17.792L82.8254 16.317C82.3754 16.0504 81.6337 16.0504 81.1754 16.317L78.6837 17.792C76.9004 18.8504 75.8171 18.0587 76.2837 16.042L76.8754 13.4837C76.9837 13.0004 76.7921 12.3254 76.4421 11.9754L74.3754 9.90871C73.1587 8.69205 73.5504 7.45871 75.2504 7.17538L77.9087 6.73371C78.3504 6.65871 78.8837 6.26705 79.0837 5.85871L80.5504 2.92538C81.3504 1.33371 82.6504 1.33371 83.4421 2.92538Z" fill="#FFA439"/>
<path d="M107.442 2.92538L108.909 5.85871C109.109 6.26705 109.642 6.65871 110.092 6.73371L112.75 7.17538C114.45 7.45871 114.85 8.69205 113.625 9.90871L111.559 11.9754C111.209 12.3254 111.017 13.0004 111.125 13.4837L111.717 16.042C112.184 18.067 111.109 18.8504 109.317 17.792L106.825 16.317C106.375 16.0504 105.634 16.0504 105.175 16.317L102.684 17.792C100.9 18.8504 99.8171 18.0587 100.284 16.042L100.875 13.4837C100.984 13.0004 100.792 12.3254 100.442 11.9754L98.3754 9.90871C97.1587 8.69205 97.5504 7.45871 99.2504 7.17538L101.909 6.73371C102.35 6.65871 102.884 6.26705 103.084 5.85871L104.55 2.92538C105.35 1.33371 106.65 1.33371 107.442 2.92538Z" fill="#FFA439"/>
</svg>
